# Blender 3.4.1
# www.blender.org
mtllib block.mtl
o Cylinder
v -0.491449 -0.431419 -0.491449
v 0.491449 -0.431419 -0.491449
v 0.491449 -0.431419 0.491449
v -0.491449 -0.431419 0.491449
v -0.354949 1.000000 -0.354949
v -0.707107 0.877375 -0.707107
v 0.354949 1.000000 -0.354949
v 0.707107 0.877375 -0.707107
v 0.354949 1.000000 0.354949
v 0.707107 0.877375 0.707107
v -0.354949 1.000000 0.354949
v -0.707107 0.877375 0.707107
v -0.584482 1.000000 -0.584482
v 0.584482 1.000000 -0.584482
v 0.584482 1.000000 0.584482
v -0.584482 1.000000 0.584482
v -0.354949 1.349681 -0.354949
v 0.354949 1.349681 -0.354949
v 0.354949 1.349681 0.354949
v -0.354949 1.349681 0.354949
v -0.707107 -0.431419 -0.707107
v 0.707107 -0.431419 -0.707107
v 0.707107 -0.431419 0.707107
v -0.707107 -0.431419 0.707107
v -0.491449 0.205420 -0.491449
v 0.491449 0.205420 -0.491449
v 0.491449 0.205420 0.491449
v -0.491449 0.205420 0.491449
vn -1.0000 -0.0000 -0.0000
vn -0.0000 -0.0000 1.0000
vn -0.0000 -0.0000 -1.0000
vn 1.0000 -0.0000 -0.0000
vn -0.0000 0.7071 -0.7071
vn 0.7071 0.7071 -0.0000
vn -0.0000 0.7071 0.7071
vn -0.7071 0.7071 -0.0000
vn -0.0000 1.0000 -0.0000
vn -0.0000 -1.0000 -0.0000
s 0
f 24//1 12//1 6//1 21//1
f 23//2 10//2 12//2 24//2
f 21//3 6//3 8//3 22//3
f 22//4 8//4 10//4 23//4
f 3//3 4//3 28//3 27//3
f 8//5 6//5 13//5 14//5
f 10//6 8//6 14//6 15//6
f 12//7 10//7 15//7 16//7
f 6//8 12//8 16//8 13//8
f 9//4 7//4 18//4 19//4
f 5//9 7//9 14//9 13//9
f 7//9 9//9 15//9 14//9
f 9//9 11//9 16//9 15//9
f 11//9 5//9 13//9 16//9
f 18//9 17//9 20//9 19//9
f 11//2 9//2 19//2 20//2
f 7//3 5//3 17//3 18//3
f 5//1 11//1 20//1 17//1
f 2//10 1//10 21//10 22//10
f 3//10 2//10 22//10 23//10
f 4//10 3//10 23//10 24//10
f 1//10 4//10 24//10 21//10
f 25//10 26//10 27//10 28//10
f 1//2 2//2 26//2 25//2
f 4//4 1//4 25//4 28//4
f 2//1 3//1 27//1 26//1
