# This file uses centimeters as units for non-parametric coordinates.

mtllib Grass_block.mtl
g default
v -5.000000 0.000000 5.000000
v 5.000000 0.000000 5.000000
v -5.000000 10.000000 5.000000
v 5.000000 10.000000 5.000000
v -5.000000 10.000000 -5.000000
v 5.000000 10.000000 -5.000000
v -5.000000 0.000000 -5.000000
v 5.000000 0.000000 -5.000000
vt 0.437500 0.914063
vt 0.437500 0.914063
vt 0.515625 0.742188
vt 0.421875 0.929688
vt 0.437500 0.929687
vt 0.531250 0.757812
vt 0.406250 0.914062
vt 0.421875 0.914062
vt 0.406250 0.929688
vt 0.421875 0.929688
vt 0.437500 0.914063
vt 0.437500 0.929688
vt 0.421875 0.914063
vt 0.421875 0.929688
vt 0.421875 0.914062
vt 0.437500 0.914062
vt 0.531250 0.742188
vt 0.421875 0.929687
vt 0.421875 0.929688
vt 0.515625 0.757812
vt 0.421875 0.914063
vt 0.437500 0.929688
vt 0.421875 0.914063
vt 0.437500 0.929688
vn 0.000000 0.000000 1.000000
vn 0.000000 0.000000 1.000000
vn 0.000000 0.000000 1.000000
vn 0.000000 0.000000 1.000000
vn 0.000000 1.000000 0.000000
vn 0.000000 1.000000 0.000000
vn 0.000000 1.000000 0.000000
vn 0.000000 1.000000 0.000000
vn 0.000000 0.000000 -1.000000
vn 0.000000 0.000000 -1.000000
vn 0.000000 0.000000 -1.000000
vn 0.000000 0.000000 -1.000000
vn 0.000000 -1.000000 0.000000
vn 0.000000 -1.000000 0.000000
vn 0.000000 -1.000000 0.000000
vn 0.000000 -1.000000 0.000000
vn 1.000000 0.000000 0.000000
vn 1.000000 0.000000 0.000000
vn 1.000000 0.000000 0.000000
vn 1.000000 0.000000 0.000000
vn -1.000000 0.000000 0.000000
vn -1.000000 0.000000 0.000000
vn -1.000000 0.000000 0.000000
vn -1.000000 0.000000 0.000000
s off
g MSH_Grass_block
usemtl Grass_block_SG
f 1/21/1 2/2/2 4/24/3 3/19/4
f 3/3/5 4/17/6 6/6/7 5/20/8
f 5/5/9 6/18/10 8/8/11 7/16/12
f 7/7/13 8/15/14 2/10/15 1/9/16
f 2/23/17 8/11/18 6/12/19 4/4/20
f 7/13/21 1/1/22 3/22/23 5/14/24

